<svg width="170" height="80" viewBox="0 0 170 80" fill="none" xmlns="http://www.w3.org/2000/svg">
<path d="M0 80.2946C0 80.2946 24.4283 64.6551 41.2799 69.0147C84.5689 80.2134 115.649 72.492 132.672 64.0062C149.695 55.5204 169.758 56.7748 169.758 56.7748V80.9613L0 80.2946Z" fill="#C61E12"/>
<path d="M94.0296 70.3852L94.2503 69.9306C72.2582 59.6084 70.6859 44.9923 70.6722 44.8459L70.1719 44.8997C70.1856 45.0495 71.7859 59.9451 94.029 70.3852H94.0296Z" fill="#507971"/>
<path d="M75.8476 56.2768C75.8476 56.2768 68.5122 52.9401 67.4659 55.9195C66.5196 58.6135 69.4721 58.1093 72.0684 57.1865C73.6773 56.6147 75.8476 56.2768 75.8476 56.2768Z" fill="#507971"/>
<path d="M78.0371 58.7953C78.0371 58.7953 69.5942 57.1801 69.2494 60.5048C68.9378 63.511 71.8766 62.26 74.3413 60.6677C75.869 59.6809 78.0371 58.7953 78.0371 58.7953Z" fill="#507971"/>
<path d="M82.541 63.005C82.541 63.005 74.0981 61.3898 73.7533 64.7145C73.4417 67.7207 76.3804 66.4698 78.8452 64.8774C80.3729 63.8906 82.541 63.005 82.541 63.005Z" fill="#507971"/>
<path d="M72.1094 49.5439C72.1094 49.5439 72.744 42.97 75.2551 43.4319C77.5255 43.8499 75.9761 45.7475 74.278 47.222C73.226 48.1357 72.11 49.5439 72.11 49.5439H72.1094Z" fill="#507971"/>
<path d="M74.0664 53.6765C74.0664 53.6765 74.701 47.1025 77.2121 47.5645C79.4825 47.9825 77.9325 49.8801 76.235 51.3546C75.1824 52.2683 74.067 53.6765 74.067 53.6765H74.0664Z" fill="#507971"/>
<path d="M70.8468 47.2386C70.8468 47.2386 65.8063 43.0654 64.361 45.2014C63.054 47.1328 65.4713 47.3524 67.6971 47.1665C69.0767 47.0516 70.8468 47.2386 70.8468 47.2386Z" fill="#507971"/>
<path d="M73.0505 52.1442C73.0505 52.1442 68.01 47.9711 66.5641 50.1071C65.2571 52.0384 67.6744 52.258 69.9002 52.0722C71.2798 51.9572 73.05 52.1442 73.05 52.1442H73.0505Z" fill="#507971"/>
<path d="M70.4897 45.3925C70.4897 45.3925 66.9609 39.882 69.2564 38.7065C71.3324 37.6436 71.4771 40.5824 71.022 42.7699C70.7401 44.1255 70.4897 45.3925 70.4897 45.3925Z" fill="#507971"/>
<path d="M79.1588 59.805C79.1588 59.805 77.475 53.3042 80.0667 52.872C82.4103 52.4809 81.5738 54.8331 80.4458 56.8325C79.7465 58.0714 79.1588 59.805 79.1588 59.805Z" fill="#507971"/>
<path d="M83.4512 63.5962C83.4512 63.5962 80.4564 56.6673 83.2751 55.7445C85.8245 54.9103 85.2939 57.6638 84.3774 60.0766C83.8097 61.5717 83.4506 63.5968 83.4506 63.5968L83.4512 63.5962Z" fill="#507971"/>
<path d="M107.359 37.0749L80.8728 41.4901C79.8169 41.6662 79.1036 42.6648 79.2796 43.7207L81.8708 59.2646C82.0468 60.3205 83.0454 61.0337 84.1013 60.8577L110.588 56.4425C111.644 56.2665 112.357 55.2679 112.181 54.212L109.59 38.6681C109.414 37.6122 108.415 36.8989 107.359 37.0749Z" fill="#507971"/>
<path d="M103.458 49.5816C104.08 53.3116 101.559 56.8399 97.8294 57.4613C94.0994 58.0834 90.5711 55.5632 89.9497 51.8331C89.3282 48.103 91.8478 44.5748 95.5779 43.9533C99.308 43.3313 102.836 45.8515 103.458 49.5816Z" fill="#42635D"/>
<path d="M110.275 42.7709L79.9648 47.8235L81.1881 55.1618L111.498 50.1092L110.275 42.7709Z" fill="#F7E4C4"/>
<path d="M111.306 48.9762L80.9961 54.0288L81.1849 55.1613L111.495 50.1087L111.306 48.9762Z" fill="#1D2F41"/>
<path d="M102.485 47.84C103.107 51.5701 100.587 55.0983 96.8569 55.7198C93.1269 56.3418 89.5986 53.8216 88.9771 50.0915C88.3551 46.3615 90.8753 42.8332 94.6054 42.2118C98.3354 41.5897 101.864 44.11 102.485 47.84Z" fill="#29435F"/>
<path d="M99.897 48.2716C100.281 50.5735 98.726 52.7501 96.4242 53.1338C94.1224 53.5174 91.9457 51.9628 91.5621 49.661C91.1784 47.3592 92.733 45.1825 95.0348 44.7989C97.3367 44.4152 99.5133 45.9698 99.897 48.2716Z" fill="#797780"/>
<path d="M91.5615 49.6609C91.6959 50.4671 92.0595 51.1732 92.562 51.7449C92.8205 51.7501 93.0823 51.7381 93.3471 51.6941C95.6489 51.3104 97.2035 49.1332 96.8198 46.832C96.6855 46.0258 96.3218 45.3197 95.8193 44.7479C95.5609 44.7428 95.299 44.7548 95.0348 44.7988C92.733 45.1825 91.1784 47.3591 91.5621 49.6609H91.5615Z" fill="#918F99"/>
<path d="M88.0771 38.6487L81.1534 39.8029C80.8357 39.8559 80.6211 40.1563 80.674 40.474L81.0143 42.5156C81.0673 42.8333 81.3678 43.0479 81.6855 42.9949L88.6092 41.8408C88.9269 41.7878 89.1415 41.4873 89.0886 41.1696L88.7483 39.1281C88.6953 38.8104 88.3948 38.5958 88.0771 38.6487Z" fill="#E5A53C"/>
<path d="M95.4904 45.9064C95.5504 46.2672 95.1508 46.6342 94.5973 46.7263C94.0439 46.8183 93.547 46.6011 93.4864 46.2403C93.4264 45.8795 93.826 45.5125 94.3795 45.4204C94.9329 45.3284 95.4298 45.5456 95.4904 45.9064Z" fill="#ABADC8"/>
<path d="M86.5314 44.7104L81.3672 45.5713L81.6107 47.0319L86.7749 46.1711L86.5314 44.7104Z" fill="white"/>
<path d="M82.9151 40.2109L81.4883 40.4487L81.6387 41.3511L83.0655 41.1132L82.9151 40.2109Z" fill="white"/>
<path d="M84.6964 39.9165L83.2695 40.1543L83.4199 41.0566L84.8468 40.8188L84.6964 39.9165Z" fill="white"/>
<path d="M114.98 74.452C115.801 65.6877 109.847 57.5672 101.025 55.8703C92.202 54.1734 83.6607 59.5055 81.1719 67.949C85.6503 66.7615 91.9372 66.6688 98.6975 67.969C105.458 69.2691 111.262 71.6876 114.98 74.452H114.98Z" fill="#29435F"/>
<path d="M80.7689 69.591C80.8764 69.0313 81.0136 68.4847 81.1714 67.9495C77.4734 68.9301 75.0046 70.655 74.5569 72.9809C73.9097 76.3456 77.6437 80.1116 83.7505 82.9829C81.0542 79.2517 79.8307 74.4685 80.7689 69.591Z" fill="#29435F"/>
<path d="M119.259 81.5782C119.706 79.2523 118.054 76.7349 114.984 74.452C114.932 75.0077 114.856 75.5663 114.749 76.126C113.81 81.0036 110.9 84.9909 107.012 87.4563C113.747 87.0555 118.612 84.9435 119.26 81.5788L119.259 81.5782Z" fill="#29435F"/>
<path d="M114.746 76.126C114.853 75.5663 114.929 75.0083 114.981 74.452C111.263 71.6876 105.458 69.2691 98.698 67.969C91.9377 66.6688 85.6509 66.7614 81.1724 67.9489C81.0146 68.4847 80.8774 69.0307 80.7699 69.5904C79.8316 74.468 81.0552 79.2506 83.7515 82.9824C86.9761 84.4986 90.8508 85.7691 95.1166 86.5901C99.3824 87.4105 103.452 87.6678 107.009 87.4563C110.897 84.9915 113.808 81.0036 114.746 76.126Z" fill="#29435F"/>
<path d="M108.243 77.8487C105.665 76.8287 101.779 75.7487 97.3653 74.8996C92.9514 74.0506 88.9424 73.6121 86.17 73.6029C83.8802 73.5949 82.4302 73.8785 82.3159 74.4731C82.1506 75.333 84.8132 76.6246 88.9252 77.8487C91.0967 78.4954 93.665 79.1237 96.45 79.6594C99.2349 80.1951 101.853 80.5645 104.11 80.7698C108.382 81.158 111.334 80.947 111.499 80.0865C111.614 79.4919 110.372 78.6909 108.243 77.8487Z" fill="#D83226"/>
<path d="M95.6719 67.4756C95.6719 67.4756 95.7313 67.4853 95.8308 67.5024C96.7759 67.6322 97.7302 67.782 98.6987 67.9684C105.459 69.2685 111.263 71.687 114.981 74.4514C115.323 70.7997 114.476 67.2674 112.748 64.2572C107.936 64.1646 100.891 64.6203 95.6719 67.475V67.4756Z" fill="#1D2F41"/>
<path d="M145.357 39.619C145.964 36.4876 146.569 33.3555 147.186 30.2258C147.249 29.9062 147.155 29.6724 146.971 29.4265C146.54 28.8485 146.128 28.255 145.709 27.6678C145.892 27.3259 146.04 26.9103 145.895 26.7273C145.749 26.5427 145.311 26.5895 144.9 26.5169C144.15 25.3723 143.38 24.1139 142.962 22.6777C142.857 22.3192 142.765 21.9407 142.764 21.5713C142.763 20.7869 143.318 20.4662 143.992 20.8521C144.263 21.0076 144.501 21.2346 144.727 21.4559C145.839 22.5439 146.684 23.8189 147.337 25.2253C147.455 25.4798 147.59 25.7262 147.73 26.0001C147.811 25.9074 147.871 25.8708 147.877 25.8268C148.067 24.5941 148.243 23.3586 148.442 22.1276C148.495 21.7977 148.347 21.5885 148.159 21.3524C147.717 20.7955 147.303 20.2163 146.898 19.6743C147.148 19.3147 147.64 19.1803 147.417 18.7446C147.141 18.2049 146.701 18.7332 146.317 18.6749C145.492 17.2901 144.789 15.8688 144.348 14.3268C144.301 14.1615 144.275 13.9826 144.28 13.8116C144.298 13.257 144.691 13.006 145.158 13.2896C145.499 13.4972 145.825 13.7653 146.082 14.0706C147.074 15.2513 147.949 16.5114 148.518 17.9608C148.584 18.1289 148.689 18.2815 148.775 18.441C148.877 18.1237 148.865 17.8407 148.829 17.5611C148.652 16.1798 148.412 14.8042 148.3 13.4183C148.162 11.7145 148.086 10.0032 148.068 8.29429C148.06 7.52015 148.219 6.73572 148.383 5.97302C148.441 5.70773 148.696 5.37611 148.939 5.28521C149.33 5.13941 149.531 5.50533 149.713 5.82036C150.634 7.42067 150.634 9.18965 150.655 10.9066C150.371 11.1216 150.066 11.3411 149.995 11.6207C149.868 12.1204 150.422 12.1267 150.732 12.3245C150.446 14.7744 150.011 17.1883 150.05 19.6749C150.136 19.6325 150.175 19.6268 150.185 19.6068C150.362 19.2746 150.529 18.9362 150.71 18.6068C151.854 16.5394 153.206 14.6286 154.95 13.0192C155.204 12.7853 155.479 12.5532 155.785 12.4006C156.446 12.0712 156.965 12.3983 156.948 13.1307C156.94 13.4726 156.856 13.8214 156.755 14.1512C156.247 15.8259 155.475 17.3827 154.583 18.8824C154.498 19.0271 154.37 19.1466 154.231 19.3147C154.079 19.182 153.961 19.0591 153.824 18.9642C153.675 18.8607 153.508 18.7835 153.349 18.6949C153.302 18.7343 153.255 18.7744 153.208 18.8138C153.403 19.2095 153.598 19.6045 153.806 20.0242C153.688 20.2043 153.579 20.4107 153.434 20.5868C152.625 21.5679 151.835 22.569 150.973 23.5016C150.711 23.7851 150.491 24.0396 150.357 24.4026C149.933 25.5432 149.476 26.6707 149.039 27.8062C148.953 28.0303 148.899 28.2665 148.829 28.4974C148.883 28.5226 148.937 28.5483 148.99 28.5735C150.025 26.7045 151.158 24.912 152.809 23.4587C152.9 23.6513 152.955 23.7651 153.079 24.027C153.211 22.8526 153.961 22.33 154.806 21.9081C155.145 21.7389 155.524 21.6011 155.873 21.8847C156.22 22.166 156.203 22.5685 156.067 22.9264C155.842 23.5198 155.606 24.1196 155.284 24.6645C153.898 27.0149 152.073 28.9846 149.961 30.7015C149.505 31.072 149.012 31.2378 148.42 31.1721C148.047 33.1246 147.679 35.0525 147.311 36.981C147.347 36.9976 147.384 37.0136 147.421 37.0301C147.682 36.6848 147.943 36.3395 148.242 35.9444C148.371 36.3904 148.472 36.7414 148.574 37.093C148.72 36.9152 148.746 36.7729 148.761 36.6299C148.916 35.1297 149.563 33.9033 150.609 32.7981C152.051 31.2733 153.66 29.9491 155.258 28.6066C155.806 28.1458 156.403 27.7439 157.016 27.2865C157.089 27.5312 157.133 27.681 157.19 27.8708C157.269 27.7696 157.325 27.7067 157.371 27.6375C157.419 27.5655 157.461 27.4894 157.502 27.4128C158.035 26.4089 158.996 26.0772 160.009 25.8977C161.016 25.7188 161.517 26.3786 161.106 27.3237C160.913 27.7696 160.651 28.2099 160.33 28.5729C158.197 30.9828 156.04 33.3721 153.888 35.7649C153.746 35.9232 153.578 36.0576 153.421 36.2034C153.384 36.176 153.347 36.1485 153.31 36.1205C153.545 35.4561 153.78 34.7923 154.014 34.128C153.276 34.7781 152.872 35.6197 152.608 36.491C152.316 37.4544 151.72 38.1656 151.061 38.8597C149.039 40.9918 147.231 43.2885 145.701 45.7996C145.611 45.9482 145.569 46.1266 145.505 46.2913C145.88 46.0923 146.156 45.8373 146.43 45.5794C148.413 43.707 150.373 41.8031 152.641 40.2691C153.623 39.6059 154.646 39.0004 155.679 38.4206C156.035 38.2211 156.514 37.9524 156.878 38.3749C157.242 38.7974 156.901 39.2274 156.657 39.5555C155.864 40.6236 155.071 41.7007 154.184 42.6887C153.16 43.8288 152.063 44.9111 150.832 45.6852C150.542 45.6069 150.334 45.5508 150.126 45.4948C150.074 45.7527 150.022 46.0105 149.955 46.3421C148.984 46.9293 147.955 47.552 146.771 48.2683C146.931 47.6537 147.042 47.2266 147.153 46.7995L147.003 46.6772C146.736 46.859 146.426 47.0019 146.214 47.2341C145.964 47.5073 145.756 47.8395 145.605 48.1797C145.326 48.8035 144.81 49.0665 144.202 49.2186C144.046 49.2575 143.882 49.2637 143.719 49.2849C143.414 50.3129 143.168 51.2997 142.827 52.2534C142.312 53.6988 141.736 55.1224 141.169 56.5489C141.109 56.701 140.942 56.8102 140.794 56.972C140.507 56.3042 140.521 56.3088 140.676 55.8274C140.908 55.1104 141.125 54.3889 141.33 53.6645C141.373 53.5135 141.372 53.2065 141.337 53.1991C140.708 53.0521 141.385 52.5959 141.093 52.3077C140.906 52.3174 140.683 52.334 140.46 52.3397C140.294 52.3443 140.081 52.4015 139.97 52.3214C139.073 51.6736 138.238 50.9556 137.68 49.9744C137.492 49.6451 137.435 49.2575 137.723 49.011C137.934 48.8298 138.292 48.7566 138.586 48.7538C138.862 48.7515 139.165 48.8584 139.411 48.9973C140.165 49.4238 140.898 49.8881 141.637 50.3392C141.821 50.4513 142.001 50.5696 142.245 50.7246C142.464 49.971 142.655 49.3112 142.84 48.6743C142.236 48.3021 141.684 47.9882 141.161 47.632C140.62 47.2638 140.107 46.8538 139.518 46.4142C139.803 46.1489 140.001 45.9877 140.169 45.8001C140.322 45.6292 140.442 45.4291 140.577 45.2415C140.543 45.2032 140.509 45.1643 140.474 45.126C139.954 45.3547 139.433 45.584 138.872 45.831C137.316 44.3062 136.142 42.5326 135.352 40.5092C135.165 40.0278 134.983 39.4681 135.461 39.0473C135.947 38.6202 136.455 38.9295 136.918 39.1536C137.998 39.6762 138.971 40.376 139.784 41.2462C141.01 42.5578 142.165 43.9357 143.35 45.285C143.438 45.3845 143.531 45.4794 143.621 45.5766C143.777 45.2318 143.789 44.9277 143.756 44.6286C143.59 43.1124 143.078 41.6916 142.48 40.3062C141.286 37.539 140.058 34.7872 138.842 32.0291C138.081 30.3019 137.405 28.5443 136.997 26.6959C136.91 26.3014 136.832 25.8937 136.833 25.4929C136.836 24.5736 137.512 24.1934 138.308 24.6387C138.459 24.7228 138.586 24.8474 138.724 24.9532C140.522 26.3345 141.683 28.2036 142.648 30.199C143.233 31.4105 143.968 32.6014 143.711 34.0948C143.887 34.0519 143.984 34.0279 144.121 33.9953C144.741 35.8106 144.991 37.6979 145.152 39.6024C145.219 39.6081 145.286 39.6133 145.353 39.619H145.357Z" fill="#507971"/>
<path d="M129.831 20.9711L105.115 28.4322C103.129 29.0316 102.005 31.1273 102.605 33.1131L116.242 78.2884C116.842 80.2742 118.938 81.398 120.923 80.7985L145.639 73.3374C147.625 72.738 148.748 70.6422 148.149 68.6565L134.511 23.4812C133.912 21.4954 131.816 20.3716 129.831 20.9711Z" fill="#CF9737"/>
<path d="M134.51 23.4827C133.911 21.4971 131.815 20.373 129.83 20.9728L107.187 27.808C106.593 28.737 106.379 29.9011 106.723 31.0389L120.941 78.1369C121.223 79.0717 121.833 79.8092 122.596 80.2946L145.638 73.3388C147.623 72.7396 148.747 70.6436 148.148 68.6573L134.51 23.4821V23.4827Z" fill="#E5A53C"/>
<path d="M108.123 46.1739L106.676 46.5724L106.875 47.2967L108.323 46.8982L108.123 46.1739Z" fill="white"/>
<path d="M110.957 46.1706L110.758 45.4462L113.394 44.7189L113.594 45.4433L110.957 46.1706ZM116.231 44.7161L116.031 43.9917L118.667 43.2644L118.867 43.9888L116.231 44.7161Z" fill="white"/>
<path d="M121.508 43.2615L121.309 42.5371L123.945 41.8099L124.144 42.5343L121.508 43.2615ZM126.781 41.807L126.582 41.0826L129.22 40.3554L129.419 41.0798L126.781 41.807ZM132.056 40.3519L131.857 39.6275L134.493 38.9003L134.693 39.6247L132.056 40.3519Z" fill="white"/>
<path d="M137.328 38.8974L137.129 38.173L138.576 37.7728L138.776 38.4972L137.328 38.8974Z" fill="white"/>
<path d="M140.163 60.8644C139.29 60.3053 137.654 60.3395 137.292 59.7489C136.721 58.8176 139.514 54.9703 136.468 54.6964C135.072 54.5706 133.45 56.1578 132.1 57.9114C130.19 53.6707 128.402 52.1979 127.551 51.7096C127.172 51.4918 126.794 51.3071 126.417 51.1436C126.23 51.063 126.044 50.9978 125.858 50.9292C125.685 50.8658 125.512 50.7994 125.339 50.7463C125.087 50.6685 124.836 50.601 124.586 50.5439C124.501 50.5244 124.417 50.5056 124.332 50.489C124.035 50.4295 123.739 50.3781 123.446 50.3449H123.445C120.627 50.031 117.993 50.9635 115.83 52.4112L115.829 52.4123C115.495 52.6364 115.172 52.8726 114.861 53.1179C114.848 53.1281 114.835 53.139 114.822 53.1493C114.525 53.3849 114.24 53.629 113.967 53.8788C113.947 53.8971 113.927 53.9149 113.908 53.9332C113.64 54.1807 113.385 54.434 113.142 54.6913C113.127 54.7073 113.112 54.7233 113.097 54.7393C112.845 55.0086 112.606 55.2808 112.384 55.5546C112.108 55.8942 111.847 56.2344 111.622 56.5712C110.564 58.1481 110.977 60.1886 112.536 61.156C113.757 61.9136 115.327 61.7626 116.469 60.9164L116.472 60.9147C116.626 60.8004 116.774 60.6752 116.911 60.5379C117.055 60.395 117.189 60.2389 117.308 60.0668C117.342 60.0171 117.387 59.9542 117.441 59.8816C117.445 59.8764 117.45 59.8701 117.453 59.8644C117.842 59.3413 118.689 58.3201 119.822 57.6495C120.462 57.2699 121.192 57.0057 121.984 57.0091C122.26 57.0103 122.545 57.0515 122.833 57.1229C122.88 57.1344 122.928 57.1504 122.975 57.1641C123.263 57.2481 123.554 57.3602 123.852 57.5306C124.004 57.6186 124.16 57.7558 124.318 57.9251C124.43 58.048 124.545 58.2081 124.659 58.371C124.7 58.4288 124.74 58.4722 124.781 58.5351C124.929 58.7633 125.078 59.0223 125.228 59.311C125.234 59.3207 125.238 59.3287 125.243 59.3384C125.401 59.6432 125.559 59.9788 125.718 60.3441C125.808 60.5528 125.899 60.7609 125.989 60.989C123.56 60.4722 120.684 60.1995 119.573 61.4436C117.505 63.7597 122.09 64.6608 122.281 65.7437C122.47 66.8271 119.29 68.9666 121.811 70.133C123.406 70.8711 126.047 69.5217 127.868 67.117C127.929 67.3594 127.991 67.5818 128.051 67.8311C128.063 67.882 128.076 67.9283 128.088 67.9792C128.094 68.0026 128.099 68.0266 128.105 68.0495C128.308 68.9088 128.507 69.8076 128.701 70.7339L129.36 73.52L129.92 69.6847L134.697 65.571C134.62 65.2754 134.543 64.981 134.465 64.6974C134.852 64.7488 135.235 64.778 135.61 64.7837L140.162 60.8638L140.163 60.8644Z" fill="#D29938"/>
<path d="M128.353 66.1629C128.353 66.1629 128.352 66.1595 128.352 66.1578C128.357 66.1812 128.362 66.2052 128.368 66.2281C128.363 66.2069 128.358 66.1829 128.353 66.1618V66.1623L128.353 66.1629Z" fill="#D83226"/>
<path d="M126.121 49.1072C126.307 49.1758 126.493 49.241 126.68 49.3216C126.493 49.2398 126.307 49.1764 126.121 49.1072Z" fill="#D83226"/>
<path d="M123.239 55.3426C123.192 55.3288 123.145 55.3134 123.098 55.3014C123.145 55.3134 123.192 55.3283 123.239 55.3426Z" fill="#D83226"/>
<path d="M125.044 56.7136C125.002 56.6508 124.962 56.6073 124.922 56.5496C124.962 56.6067 125.002 56.6519 125.044 56.7136Z" fill="#D83226"/>
<path d="M116.094 50.5891L120.085 55.8274C120.726 55.4478 121.456 55.1836 122.248 55.1871C122.815 53.0253 123.319 50.6183 123.708 48.5223C120.891 48.2084 118.257 49.1409 116.094 50.5885V50.5891Z" fill="#D83226"/>
<path d="M124.848 48.7218C125.098 48.7784 125.349 48.8464 125.601 48.9242C125.349 48.8447 125.098 48.7801 124.848 48.7218Z" fill="#D83226"/>
<path d="M111.883 54.7497C110.826 56.3265 111.238 58.3671 112.798 59.3339C114.019 60.0915 115.589 59.9405 116.731 59.0944L112.645 53.7325C112.37 54.0722 112.109 54.4123 111.883 54.7491V54.7497Z" fill="#D83226"/>
<path d="M117.174 58.7159C117.036 58.8532 116.888 58.9784 116.734 59.0927C116.889 58.9778 117.038 58.856 117.174 58.7159Z" fill="#D83226"/>
<path d="M123.707 48.5228C124 48.5554 124.297 48.6069 124.593 48.6663C124.296 48.6057 124.001 48.5554 123.707 48.5228Z" fill="#D83226"/>
<path d="M117.716 58.0424C117.712 58.0477 117.707 58.0543 117.703 58.0597C117.707 58.0543 117.713 58.0477 117.716 58.0424Z" fill="#D83226"/>
<path d="M114.23 52.0568C114.503 51.807 114.788 51.5628 115.085 51.3273C114.788 51.5634 114.504 51.8064 114.23 52.0568Z" fill="#D83226"/>
<path d="M115.121 51.2957C115.432 51.0505 115.755 50.8143 116.089 50.5902C115.754 50.8143 115.432 51.0499 115.121 51.2957Z" fill="#D83226"/>
<path d="M113.402 52.8693C113.645 52.6125 113.9 52.3593 114.168 52.1117C113.9 52.3598 113.645 52.6125 113.402 52.8693Z" fill="#D83226"/>
<path d="M124.113 55.7091C124.266 55.7972 124.422 55.9344 124.579 56.1036C124.421 55.9315 124.266 55.7966 124.113 55.7091Z" fill="#D83226"/>
<path d="M112.645 53.7326C112.867 53.4587 113.105 53.1865 113.358 52.9172C113.105 53.1871 112.867 53.4587 112.645 53.7326Z" fill="#D83226"/>
<path d="M127.817 49.8876C127.437 49.6697 127.06 49.4851 126.682 49.3215C126.495 49.2409 126.31 49.1752 126.124 49.1071C125.95 49.0437 125.777 48.9774 125.605 48.9242C125.353 48.8464 125.102 48.7784 124.852 48.7218C124.767 48.7024 124.682 48.6835 124.598 48.6663C124.301 48.6069 124.005 48.5554 123.711 48.5228H123.71C123.321 50.6188 122.817 53.0259 122.25 55.1876C122.526 55.1888 122.81 55.23 123.099 55.302C123.146 55.3134 123.193 55.3294 123.241 55.3432C123.528 55.4266 123.819 55.5393 124.117 55.7096C124.27 55.7977 124.426 55.932 124.583 56.1041C124.696 56.2271 124.81 56.3872 124.925 56.5501C124.965 56.6084 125.005 56.6513 125.046 56.7142C125.194 56.9423 125.344 57.2013 125.494 57.4901C125.499 57.4998 125.504 57.5078 125.509 57.5175C125.666 57.8217 125.825 58.1579 125.983 58.5232C126.833 55.8806 127.54 52.6851 128.049 50.0397C127.969 49.9876 127.885 49.9282 127.817 49.8887V49.8876Z" fill="#F7E4C4"/>
<path d="M128.133 65.2955C128.193 65.5385 128.256 65.7604 128.316 66.0096C128.256 65.7632 128.196 65.5305 128.136 65.291C128.135 65.2927 128.134 65.2938 128.133 65.295V65.2955Z" fill="#F7E4C4"/>
<path d="M132.041 62.7039C132.123 63.02 131.967 63.3642 131.641 63.494L130.61 63.9057C130.289 64.0337 129.957 63.8908 129.806 63.6089C129.441 64.5466 128.934 65.4065 128.352 66.1618C128.357 66.1829 128.361 66.2069 128.366 66.2281C128.57 67.0874 128.769 67.9862 128.963 68.9124L129.677 68.2972C130.881 66.8502 132.004 65.0223 133.011 63.0909C132.685 62.972 132.357 62.8605 132.041 62.7039Z" fill="#F7E4C4"/>
<path d="M130.539 58.7548C131.021 57.9687 131.65 57.015 132.355 56.0985C132.157 55.6588 131.96 55.2483 131.766 54.8669C131.308 56.047 130.818 57.1945 130.32 58.3094C130.372 58.3626 130.415 58.4255 130.442 58.4992L130.539 58.7548Z" fill="#F7E4C4"/>
<path d="M116.091 50.5891L116.09 50.5903C115.755 50.8144 115.432 51.0511 115.122 51.2958C115.109 51.3061 115.096 51.317 115.082 51.3272C114.786 51.5628 114.5 51.8069 114.228 52.0568C114.208 52.0751 114.188 52.0928 114.169 52.1111C113.901 52.3587 113.646 52.6119 113.403 52.8687C113.388 52.8847 113.372 52.9007 113.358 52.9167C113.105 53.186 112.867 53.4581 112.645 53.732L116.73 59.0938C116.73 59.0938 116.731 59.0927 116.732 59.0921C116.887 58.9777 117.034 58.8525 117.172 58.7153C117.316 58.5724 117.45 58.4163 117.568 58.2442C117.603 58.1945 117.648 58.1316 117.702 58.0589C117.706 58.0538 117.711 58.0475 117.714 58.0424C118.102 57.5192 118.95 56.4981 120.082 55.8274L116.091 50.5891Z" fill="#F7E4C4"/>
<path d="M128.355 66.1617C128.937 65.4059 129.444 64.5465 129.81 63.6089C129.961 63.8907 130.293 64.0343 130.614 63.9056L131.645 63.494C131.971 63.3642 132.126 63.02 132.045 62.7038C132.36 62.861 132.688 62.972 133.015 63.0909C133.644 63.3201 134.281 63.5065 134.918 63.6043C134.851 63.3487 134.782 63.1206 134.715 62.8742C133.717 62.7393 132.702 62.4505 131.744 61.9817C131.813 62.2664 131.662 62.5723 131.369 62.6889L130.221 63.1475C129.934 63.2624 129.629 63.1475 129.488 62.8993C129.142 63.7724 128.676 64.5774 128.137 65.2909C128.197 65.5305 128.257 65.7632 128.317 66.0096C128.329 66.0605 128.342 66.1068 128.354 66.1577C128.354 66.1594 128.355 66.1611 128.355 66.1629V66.1623V66.1617Z" fill="#B3A58F"/>
<path d="M140.426 59.043C139.553 58.4838 137.916 58.5181 137.554 57.9275C136.984 56.9961 139.777 53.1489 136.731 52.8745C135.334 52.7487 133.712 54.3358 132.362 56.0888C130.453 51.8487 128.664 50.3754 127.814 49.8871C127.882 49.926 127.967 49.9854 128.046 50.038C127.537 52.6841 126.83 55.879 125.98 58.5216C126.071 58.7302 126.162 58.9384 126.252 59.1665C123.823 58.6496 120.946 58.3769 119.835 59.621C117.767 61.9372 122.353 62.8382 122.543 63.9211C122.733 65.0046 119.553 67.144 122.074 68.3104C123.668 69.0485 126.309 67.6992 128.131 65.2944C128.132 65.2933 128.133 65.2916 128.134 65.2904C128.673 64.5769 129.139 63.7713 129.485 62.8988C129.472 62.8742 129.45 62.856 129.44 62.8285L128.151 59.4135C128.037 59.1116 128.2 58.7646 128.516 58.6382L129.664 58.1797C129.903 58.0842 130.159 58.1436 130.32 58.3089C130.818 57.194 131.307 56.0465 131.765 54.8664C131.96 55.2478 132.156 55.6583 132.354 56.0979C131.649 57.0139 131.021 57.9675 130.538 58.7543L131.731 61.9137C131.74 61.936 131.736 61.9589 131.741 61.9812C132.698 62.4506 133.713 62.7387 134.712 62.8737C134.779 63.1201 134.848 63.3488 134.915 63.6038C134.278 63.5055 133.641 63.3191 133.012 63.0904C132.004 65.0217 130.881 66.8496 129.678 68.2967L134.959 63.749C134.882 63.4534 134.805 63.159 134.727 62.8754C135.114 62.9274 135.497 62.956 135.872 62.9623L140.424 59.0424L140.426 59.043Z" fill="#D83226"/>
<path d="M132.362 56.0894C132.273 55.8933 132.187 55.732 132.099 55.5474L132.095 55.556C132.182 55.7383 132.267 55.9053 132.355 56.0991C131.65 57.015 131.022 57.9687 130.539 58.7554L131.732 61.9149C131.74 61.9372 131.737 61.96 131.742 61.9823C132.699 62.4517 133.714 62.7399 134.712 62.8748C134.747 63.0012 134.781 63.1264 134.816 63.2493C134.82 63.2493 134.823 63.2493 134.827 63.2493C134.794 63.1253 134.761 62.9978 134.728 62.8766C135.115 62.9286 135.498 62.9572 135.873 62.9635L140.426 59.0436C139.553 58.4844 137.916 58.5187 137.554 57.9281C136.984 56.9967 139.777 53.1495 136.731 52.875C135.334 52.7493 133.712 54.3364 132.362 56.0894Z" fill="#C61E12"/>
<path d="M119.835 59.6215C117.767 61.9377 122.353 62.8387 122.543 63.9216C122.733 65.0051 119.553 67.1445 122.074 68.3109C123.668 69.049 126.309 67.6997 128.131 65.295C128.132 65.2938 128.133 65.2921 128.134 65.2909C128.673 64.5774 129.139 63.7718 129.485 62.8993C129.472 62.8748 129.45 62.8565 129.44 62.829L128.151 59.414L126.251 59.167C123.822 58.6501 120.946 58.3774 119.835 59.6215H119.835Z" fill="#C61E12"/>
<path d="M130.217 63.1475L131.364 62.689C131.657 62.5723 131.809 62.2664 131.74 61.9817C131.735 61.9594 131.738 61.936 131.73 61.9143L130.537 58.7548L130.44 58.4992C130.413 58.4255 130.37 58.3626 130.319 58.3094C130.158 58.1442 129.901 58.0853 129.662 58.1802L128.515 58.6387C128.199 58.7645 128.036 59.1116 128.149 59.414L129.439 62.829C129.449 62.8565 129.47 62.8748 129.484 62.8994C129.624 63.1469 129.929 63.2624 130.217 63.1475Z" fill="#F7E4C4"/>
<path d="M161.394 51.9527L139.197 48.4994C138.15 48.3364 137.15 48.6978 136.438 49.3764L137.369 49.5216L158.573 52.82C160.363 53.0985 161.588 54.7754 161.309 56.5655L156.503 87.4632C156.387 88.2058 156.022 88.8422 155.517 89.323L155.578 89.3327C157.368 89.6112 159.045 88.3859 159.324 86.5958L164.13 55.6982C164.409 53.9081 163.184 52.2311 161.394 51.9527H161.394Z" fill="white"/>
<path d="M127.976 82.0076L132.473 53.0979C132.837 50.7589 135.028 49.158 137.367 49.5217L136.435 49.3764L136.373 49.3667C134.583 49.0883 132.906 50.3135 132.627 52.1037L127.821 83.0013C127.542 84.7914 128.768 86.4683 130.558 86.7468L131.551 86.9011C129.212 86.5364 127.611 84.346 127.975 82.007L127.976 82.0076Z" fill="#D83226"/>
<path d="M140.423 65.7077C140.281 66.989 140.223 68.4041 140.299 69.9523C141.483 70.149 142.697 70.3485 143.875 70.5407L144.527 66.3463L140.423 65.7077Z" fill="#D83226"/>
<path d="M141.283 58.3008C140.606 58.6501 139.976 59.0841 139.414 59.5981C139.814 59.665 140.223 59.7336 140.64 59.8033C140.864 59.2156 141.083 58.713 141.283 58.3008Z" fill="#D83226"/>
<path d="M140.608 73.0312L140.557 73.0392C141.38 73.571 142.305 73.9626 143.307 74.1867L143.699 71.6665C142.707 71.5018 141.61 71.3189 140.375 71.1113C140.431 71.734 140.505 72.3709 140.608 73.0312Z" fill="#D83226"/>
<path d="M138.184 70.7419C138.527 71.2354 138.918 71.6956 139.358 72.1073C139.309 71.7048 139.265 71.3062 139.233 70.9186C138.891 70.8609 138.544 70.8031 138.184 70.7419Z" fill="#D83226"/>
<path d="M144.699 65.2332L145.245 61.7187C144.12 61.5323 142.842 61.3185 141.404 61.0767C141.084 62.0583 140.785 63.2344 140.57 64.5917L144.698 65.2338L144.699 65.2332Z" fill="#D83226"/>
<path d="M139.158 69.7614C139.092 68.2194 139.156 66.8135 139.298 65.5317L136.69 65.1257C136.554 66.6626 136.831 68.1543 137.449 69.475C138.001 69.5676 138.569 69.6631 139.158 69.7614Z" fill="#D83226"/>
<path d="M140.264 60.8839C139.699 60.789 139.105 60.6889 138.493 60.5854C137.715 61.5648 137.148 62.7261 136.859 64.0131L139.441 64.415C139.652 63.0634 139.944 61.8839 140.264 60.8839Z" fill="#D83226"/>
<path d="M152.6 61.709C152.215 61.024 151.737 60.3963 151.18 59.8405C151.247 60.3082 151.305 60.8748 151.339 61.5277C151.834 61.6021 152.258 61.6627 152.6 61.709Z" fill="#D83226"/>
<path d="M147.948 72.3548C147.083 72.2205 146.048 72.0535 144.812 71.85L144.422 74.3594C145.445 74.4503 146.446 74.3582 147.392 74.1015L147.346 74.0786C147.633 73.5029 147.891 72.938 148.127 72.3823C148.066 72.3725 148.012 72.3645 147.948 72.3548H147.948Z" fill="#D83226"/>
<path d="M151.389 71.7019C152.404 70.6225 153.138 69.268 153.481 67.7392L150.873 67.3333C150.616 68.614 150.242 69.993 149.699 71.4624C150.41 71.5693 150.994 71.6522 151.389 71.7019Z" fill="#D83226"/>
<path d="M149.946 66.0496C150.15 64.7215 150.224 63.5357 150.221 62.5191C149.991 62.4842 149.751 62.4476 149.493 62.4076C148.628 62.2733 147.593 62.1063 146.357 61.9028L145.812 65.407L149.946 66.0496Z" fill="#D83226"/>
<path d="M145.921 57.3911C144.884 57.2991 143.87 57.3957 142.914 57.6604C142.742 57.9366 142.282 58.7273 141.789 59.9943C142.991 60.1938 144.226 60.3973 145.424 60.5923L145.922 57.3911H145.921Z" fill="#D83226"/>
<path d="M153.147 62.8787C152.762 62.8598 152.194 62.7987 151.364 62.6843C151.361 63.7169 151.279 64.905 151.074 66.2251L153.656 66.6271C153.772 65.3183 153.588 64.0451 153.147 62.8793V62.8787Z" fill="#D83226"/>
<path d="M149.82 58.7359C148.989 58.1922 148.051 57.7914 147.034 57.5638L146.535 60.7725C147.871 60.9886 149.119 61.187 150.189 61.3522C150.105 59.9669 149.902 59.0544 149.82 58.7359Z" fill="#D83226"/>
<path d="M156.5 87.4631L161.307 56.5655C161.585 54.7754 160.36 53.0984 158.57 52.82L137.367 49.5216L132.004 86.972L152.755 90.2C153.802 90.363 154.802 90.0017 155.514 89.323C156.019 88.8416 156.385 88.2058 156.5 87.4631ZM135.633 64.3921C136.451 59.1326 141.395 55.5181 146.655 56.3362C151.914 57.1544 155.528 62.1006 154.71 67.36C154.42 69.2285 153.601 70.8825 152.439 72.2107L152.525 72.5349C152.449 72.711 152.392 72.8333 151.842 72.8333C149.743 74.8413 146.772 75.8944 143.686 75.4142C140.607 74.9351 138.102 73.0369 136.709 70.4937C136.678 70.4886 136.651 70.484 136.62 70.4789L136.64 70.3628C135.705 68.5904 135.301 66.5201 135.632 64.3921H135.633Z" fill="#D83226"/>
<path d="M148.82 73.5789C149.337 73.3336 149.825 73.0352 150.281 72.6933C149.987 72.6555 149.654 72.6098 149.273 72.5543C149.133 72.8911 148.978 73.2341 148.82 73.5789Z" fill="#D83226"/>
<path d="M145.642 66.519L144.988 70.7207C146.288 70.9311 147.507 71.125 148.558 71.2879C149.112 69.8174 149.495 68.4355 149.751 67.1582L145.642 66.519H145.642Z" fill="#D83226"/>
<path d="M137.368 49.5211C135.029 49.1575 132.838 50.7584 132.475 53.0974L127.977 82.007C127.614 84.346 129.215 86.5364 131.553 86.9012H131.554L132.006 86.9715L137.369 49.5211H137.368Z" fill="#BF261B"/>
<path d="M136.621 70.4789C136.652 70.4841 136.68 70.4886 136.71 70.4938C138.102 73.0369 140.608 74.9351 143.687 75.4142C146.773 75.8945 149.744 74.8413 151.843 72.8334C152.393 72.8334 152.449 72.7104 152.526 72.5349L152.44 72.2107C153.602 70.8826 154.42 69.2291 154.711 67.3601C155.529 62.1006 151.915 57.155 146.656 56.3363C141.396 55.5181 136.452 59.1327 135.634 64.3921C135.303 66.5196 135.706 68.5904 136.642 70.3628L136.622 70.4789H136.621ZM138.183 70.7419C138.543 70.8031 138.89 70.8608 139.232 70.9186C139.264 71.3068 139.308 71.7047 139.357 72.1072C138.917 71.6956 138.526 71.2348 138.183 70.7419ZM143.308 74.1867C142.307 73.9626 141.381 73.5709 140.558 73.0392L140.609 73.0312C140.506 72.3714 140.432 71.7333 140.376 71.1107C141.611 71.3182 142.708 71.5012 143.701 71.6659L143.308 74.1861V74.1867ZM140.3 69.9523C140.224 68.4041 140.281 66.989 140.424 65.7077L144.528 66.3463L143.876 70.5407C142.698 70.3486 141.483 70.149 140.3 69.9523ZM147.391 74.1021C146.445 74.3588 145.444 74.4508 144.421 74.3599L144.811 71.8505C146.048 72.0541 147.082 72.221 147.947 72.3554C148.01 72.3651 148.064 72.3731 148.126 72.3828C147.89 72.9386 147.632 73.5034 147.344 74.0792L147.39 74.1021H147.391ZM144.987 70.7208L145.64 66.519L149.75 67.1582C149.493 68.4355 149.11 69.8174 148.556 71.2879C147.506 71.125 146.287 70.9312 144.987 70.7208ZM148.818 73.5789C148.975 73.2341 149.131 72.8911 149.27 72.5543C149.652 72.6098 149.985 72.6555 150.279 72.6933C149.823 73.0352 149.335 73.3336 148.818 73.5789ZM152.599 61.7089C152.257 61.6626 151.833 61.6014 151.337 61.5277C151.304 60.8748 151.246 60.3082 151.178 59.8405C151.735 60.3962 152.214 61.024 152.599 61.7089ZM151.364 62.6837C152.193 62.7981 152.761 62.8593 153.147 62.8782C153.587 64.0434 153.772 65.3172 153.656 66.6259L151.074 66.224C151.278 64.9038 151.36 63.7169 151.364 62.6837ZM153.483 67.7391C153.141 69.2685 152.406 70.623 151.392 71.7019C150.996 71.6521 150.413 71.5692 149.702 71.4623C150.244 69.9929 150.619 68.6139 150.875 67.3332L153.483 67.7391ZM147.034 57.5638C148.05 57.7913 148.988 58.1921 149.82 58.7359C149.901 59.0543 150.104 59.9674 150.189 61.3527C149.118 61.1875 147.87 60.9891 146.535 60.773L147.034 57.5644V57.5638ZM149.495 62.407C149.752 62.4471 149.993 62.4842 150.222 62.5185C150.226 63.5351 150.152 64.7209 149.948 66.049L145.814 65.4058L146.359 61.9016C147.595 62.1052 148.63 62.2721 149.495 62.4065V62.407ZM142.913 57.6604C143.87 57.3957 144.884 57.2991 145.921 57.3911L145.423 60.5923C144.225 60.3974 142.99 60.1938 141.788 59.9943C142.282 58.7273 142.741 57.9366 142.913 57.6604H142.913ZM145.248 61.7181L144.701 65.2326L140.573 64.5905C140.788 63.2332 141.086 62.0571 141.407 61.0754C142.845 61.3173 144.123 61.5311 145.248 61.7175L145.248 61.7181ZM141.282 58.3008C141.082 58.713 140.862 59.2156 140.639 59.8033C140.222 59.7336 139.813 59.6655 139.413 59.598C139.975 59.084 140.605 58.6495 141.282 58.3008ZM138.494 60.5855C139.106 60.6889 139.7 60.7884 140.264 60.8839C139.945 61.8839 139.653 63.0634 139.442 64.415L136.86 64.0131C137.148 62.7255 137.715 61.5643 138.494 60.5855ZM136.687 65.1262L139.295 65.5322C139.152 66.814 139.088 68.2205 139.155 69.7619C138.566 69.6636 137.997 69.5687 137.445 69.4755C136.827 68.1548 136.55 66.6631 136.687 65.1262Z" fill="white"/>
<path d="M111.696 31.2908L112.024 32.4893L111.198 32.7732L111.781 35.4979L110.615 35.914L109.824 33.2515L109.001 33.5466L108.639 32.2117L111.696 31.2908ZM113.385 30.853L114.22 34.7682L113.054 35.1843L111.915 31.3783L113.385 30.853ZM116.331 29.9778L116.528 31.2093C116.469 31.2105 116.412 31.2165 116.356 31.2271C116.3 31.2377 116.245 31.2511 116.191 31.2674C116.052 31.3088 115.926 31.367 115.812 31.4419C115.697 31.515 115.602 31.6035 115.527 31.7074C115.454 31.8108 115.405 31.9273 115.381 32.057C115.358 32.186 115.37 32.3263 115.415 32.4779C115.444 32.5752 115.484 32.6549 115.536 32.7171C115.589 32.7787 115.65 32.8245 115.72 32.8544C115.791 32.8844 115.867 32.8992 115.951 32.8987C116.034 32.8982 116.122 32.8842 116.213 32.8568C116.283 32.8361 116.353 32.807 116.423 32.7697C116.493 32.7323 116.561 32.6906 116.627 32.6444C116.693 32.5982 116.755 32.5489 116.815 32.4964C116.875 32.4439 116.929 32.3921 116.977 32.3411L117.259 33.6938C117.197 33.7531 117.128 33.8106 117.051 33.8662C116.975 33.9195 116.895 33.9708 116.812 34.0201C116.729 34.0676 116.644 34.1103 116.557 34.1484C116.471 34.1865 116.386 34.2179 116.304 34.2425C116.066 34.3136 115.831 34.336 115.599 34.3096C115.367 34.2832 115.152 34.216 114.955 34.1079C114.757 33.9998 114.584 33.8551 114.433 33.6737C114.285 33.4899 114.174 33.2773 114.102 33.0359C114.006 32.7159 113.962 32.4009 113.969 32.0909C113.976 31.7791 114.036 31.4899 114.15 31.2234C114.264 30.9569 114.433 30.7228 114.658 30.5209C114.885 30.3185 115.17 30.166 115.512 30.0636C115.642 30.025 115.777 29.9958 115.917 29.9761C116.06 29.9558 116.198 29.9564 116.331 29.9778ZM120.045 28.7872L119.251 31.0612L120.985 32.7075L119.752 33.3273L118.536 32.37L118.87 33.6521L117.716 34.0463L116.52 29.7195L117.849 29.4012L118.128 30.7001L118.597 29.0981L120.045 28.7872ZM122.666 27.9724C122.708 28.1516 122.749 28.3287 122.792 28.5037C122.834 28.6786 122.874 28.8563 122.911 29.0366L121.74 29.4544L121.817 29.8165L122.654 29.5662L122.852 30.4548L122.019 30.7348L122.113 31.153L122.809 30.9447L123.303 30.797C123.354 31.0061 123.403 31.2147 123.451 31.4226C123.5 31.628 123.55 31.8341 123.602 32.0409L121.199 32.8208L120.078 28.7465L122.666 27.9724ZM125.741 27.0891L126.069 28.2876L125.243 28.5715L125.826 31.2961L124.66 31.7122L123.869 29.0497L123.046 29.3449L122.684 28.01L125.741 27.0891Z" fill="white"/>
<path d="M88.0162 26.9269L88.8681 30.1235L92.1716 30.3007L89.3947 32.0989L90.2466 35.2949L87.6789 33.2098L84.9019 35.0079L86.0917 31.9211L83.5234 29.8359L86.827 30.0137L88.0162 26.9269Z" fill="white"/>
<path d="M141.29 6.95927L139.59 7.26628C139.695 7.16509 139.792 7.05533 139.914 6.97528C140.112 6.84378 140.335 6.73858 140.489 6.55562C140.573 6.45442 140.633 6.33435 140.676 6.20971C140.721 6.08164 140.747 5.92956 140.669 5.81864C140.585 5.69857 140.406 5.67913 140.27 5.7363C140.135 5.79405 140.035 5.90955 139.943 6.0239C139.609 6.43784 139.319 6.88666 139.074 7.35892L137.752 7.59791C137.923 7.34405 138.126 7.12278 138.354 6.9444C138.588 6.76144 138.852 6.61736 139.029 6.35779C139.127 6.21428 139.193 6.04105 139.24 5.86095C139.289 5.67628 139.313 5.45501 139.214 5.28921C139.106 5.10968 138.888 5.07309 138.728 5.15084C138.567 5.2286 138.451 5.39325 138.345 5.5562C137.95 6.16168 137.611 6.82091 137.333 7.51958C137.312 7.57161 137.293 7.62706 137.279 7.68309L135.364 8.029C135.249 7.37264 134.776 6.84262 134.154 6.63794C134.154 6.43668 134.144 6.22401 134.109 5.98902C134.069 5.71859 134.046 5.33093 134.034 4.89069C134.055 4.87868 134.078 4.86896 134.098 4.85639C134.738 4.46131 135.328 4.0125 135.856 3.51908C135.998 3.38644 136.139 3.24351 136.189 3.07141C136.237 2.89932 136.163 2.69177 135.968 2.61687C135.788 2.54769 135.574 2.61 135.4 2.69005C135.232 2.7678 135.072 2.86272 134.948 2.98393C134.723 3.20291 134.627 3.48878 134.488 3.75121C134.369 3.97419 134.209 4.18117 134.025 4.37213C134.021 3.94218 134.025 3.48877 134.033 3.04739C134.425 2.74036 134.791 2.40076 135.119 2.02626C135.216 1.91535 135.312 1.79642 135.345 1.65348C135.378 1.51055 135.328 1.33732 135.195 1.275C135.072 1.21725 134.927 1.26927 134.808 1.33559C134.694 1.4002 134.585 1.47968 134.501 1.5803C134.348 1.76269 134.282 2.0011 134.188 2.2195C134.152 2.30126 134.091 2.36815 134.046 2.44591C134.072 1.45965 134.11 0.676364 134.11 0.676364C134.11 0.592889 133.751 0 133.668 0C133.585 0 133.273 -6.40678e-06 133.363 0.61519L133.371 2.34243C133.289 2.22179 133.198 2.10687 133.14 1.97308C133.045 1.75468 132.98 1.51684 132.827 1.33388C132.742 1.23268 132.634 1.15378 132.519 1.08917C132.4 1.02285 132.255 0.970824 132.132 1.028C131.999 1.09032 131.949 1.26355 131.982 1.40649C132.015 1.54942 132.112 1.66892 132.208 1.77927C132.558 2.18006 132.95 2.54369 133.372 2.86673L133.378 4.21089C133.158 3.9982 132.975 3.75979 132.839 3.50422C132.699 3.24179 132.604 2.95648 132.379 2.73693C132.254 2.61572 132.095 2.52082 131.926 2.44307C131.752 2.36302 131.539 2.30069 131.359 2.36987C131.163 2.44477 131.089 2.65232 131.138 2.82442C131.186 2.99651 131.328 3.13887 131.471 3.27209C131.998 3.7655 132.588 4.21433 133.229 4.60941C133.276 4.63857 133.328 4.66772 133.381 4.69059L133.389 6.56247C132.857 6.62708 132.393 6.91811 132.109 7.34463C131.89 7.25715 131.652 7.17653 131.371 7.11935C131.102 7.06504 130.73 6.95413 130.313 6.8152C130.309 6.79118 130.307 6.76659 130.303 6.74315C130.15 6.00675 129.93 5.29836 129.647 4.63399C129.571 4.45503 129.485 4.27321 129.34 4.16858C129.196 4.06395 128.975 4.06223 128.838 4.22061C128.711 4.3664 128.696 4.58882 128.713 4.77921C128.727 4.96446 128.762 5.14626 128.834 5.30463C128.962 5.59107 129.198 5.77862 129.397 5.99932C129.566 6.18685 129.705 6.40811 129.822 6.64652C129.417 6.50302 128.992 6.34465 128.58 6.18627C128.425 5.71344 128.232 5.2526 127.992 4.81694C127.921 4.68829 127.842 4.55679 127.719 4.47675C127.596 4.3967 127.416 4.38471 127.312 4.48819C127.216 4.58367 127.215 4.73861 127.237 4.87183C127.259 5.00219 127.296 5.13084 127.362 5.24518C127.481 5.45158 127.683 5.59393 127.855 5.75802C127.92 5.8192 127.962 5.89982 128.02 5.96786C127.101 5.60651 126.379 5.30235 126.379 5.30235C126.3 5.27376 125.621 5.40813 125.592 5.48646C125.563 5.56479 125.456 5.85866 126.065 5.98387L127.722 6.57905C127.572 6.6185 127.42 6.6488 127.265 6.65795C127.028 6.67225 126.782 6.65225 126.558 6.73343C126.434 6.7786 126.322 6.85292 126.222 6.93925C126.119 7.02787 126.021 7.14622 126.033 7.28173C126.046 7.42809 126.191 7.53444 126.337 7.55273C126.483 7.57046 126.628 7.52072 126.765 7.46755C127.261 7.27602 127.737 7.03245 128.184 6.74544L129.449 7.19941C129.174 7.33377 128.887 7.42409 128.601 7.46411C128.307 7.50585 128.006 7.49785 127.723 7.63449C127.566 7.70996 127.423 7.82717 127.292 7.95924C127.157 8.09532 127.026 8.27485 127.029 8.46753C127.032 8.67678 127.202 8.81744 127.38 8.83059C127.558 8.84374 127.741 8.75911 127.914 8.67106C128.559 8.34402 129.182 7.94324 129.773 7.47669C129.817 7.44182 129.861 7.40352 129.901 7.36178L131.835 8.05645C131.82 8.1485 131.806 8.24054 131.806 8.33602C131.806 8.6945 131.915 9.02842 132.098 9.30914C131.897 9.51268 131.69 9.76366 131.495 10.081C131.352 10.3143 131.121 10.6259 130.847 10.9712C130.823 10.9666 130.8 10.9598 130.777 10.9563C130.032 10.8477 129.292 10.8123 128.57 10.8511C128.376 10.8614 128.176 10.8797 128.028 10.9803C127.88 11.0804 127.803 11.2874 127.905 11.4703C127.998 11.639 128.202 11.7287 128.387 11.7791C128.566 11.8282 128.749 11.858 128.922 11.8448C129.236 11.8214 129.492 11.6641 129.768 11.5532C130.002 11.4589 130.257 11.4029 130.522 11.3748C130.248 11.7065 129.954 12.0518 129.664 12.3846C129.167 12.368 128.668 12.3925 128.176 12.4692C128.031 12.492 127.881 12.5212 127.763 12.6092C127.646 12.6979 127.573 12.8625 127.635 12.9957C127.693 13.1187 127.837 13.1724 127.97 13.1976C128.1 13.2222 128.234 13.2307 128.364 13.2079C128.598 13.1661 128.801 13.026 129.014 12.9197C129.105 12.8739 129.201 12.8374 129.297 12.8042C128.63 13.5589 128.081 14.1518 128.081 14.1518C128.027 14.2158 127.921 14.9008 127.985 14.954C128.049 15.0077 128.288 15.2084 128.614 14.679L129.74 13.3256C129.726 13.48 129.702 13.6338 129.658 13.7825C129.59 14.0111 129.487 14.2353 129.487 14.4731C129.487 14.6052 129.519 14.7356 129.566 14.8585C129.614 14.9854 129.691 15.1186 129.822 15.1535C129.964 15.1912 130.114 15.0912 130.181 14.9602C130.247 14.8293 130.25 14.6761 130.247 14.5291C130.237 13.9974 130.17 13.4669 130.054 12.9483L130.914 11.9151C130.946 12.2193 130.933 12.52 130.873 12.8025C130.811 13.0929 130.7 13.3737 130.732 13.6858C130.749 13.8585 130.81 14.034 130.89 14.2015C130.971 14.3742 131.095 14.5595 131.278 14.6224C131.476 14.691 131.666 14.5789 131.739 14.4159C131.813 14.253 131.795 14.0523 131.772 13.8591C131.685 13.1421 131.521 12.4183 131.285 11.7047C131.267 11.6516 131.246 11.5967 131.221 11.5446L132.636 9.84315C132.916 10.0232 133.246 10.1313 133.602 10.1313C133.665 10.1313 133.724 10.1187 133.785 10.1124C133.908 10.3806 134.08 10.6727 134.321 10.9763C134.492 11.1907 134.706 11.5144 134.936 11.8894C134.924 11.9106 134.909 11.9306 134.898 11.9512C134.541 12.6132 134.254 13.297 134.044 13.9883C133.987 14.1741 133.936 14.3691 133.98 14.5423C134.024 14.7155 134.192 14.8585 134.398 14.8253C134.589 14.795 134.743 14.6338 134.854 14.4783C134.961 14.3268 135.051 14.165 135.098 13.9974C135.184 13.695 135.123 13.4 135.113 13.1032C135.105 12.8505 135.139 12.5915 135.203 12.3342C135.421 12.7041 135.645 13.0992 135.859 13.4852C135.673 13.9471 135.525 14.424 135.429 14.9128C135.401 15.0569 135.377 15.2084 135.42 15.349C135.463 15.4897 135.593 15.6143 135.739 15.6017C135.874 15.5903 135.974 15.4725 136.043 15.3559C136.11 15.2427 136.165 15.1198 136.187 14.99C136.229 14.7556 136.166 14.5166 136.139 14.2799C136.128 14.1787 136.126 14.0763 136.127 13.9746C136.608 14.8596 136.978 15.5777 136.978 15.5777C137.019 15.6498 137.627 15.9842 137.699 15.9425C137.771 15.9008 138.042 15.7447 137.656 15.257L136.786 13.7647C136.916 13.8282 137.053 13.8825 137.17 13.9694C137.361 14.1112 137.537 14.2844 137.76 14.3662C137.884 14.4114 138.018 14.4257 138.149 14.4245C138.285 14.4228 138.437 14.3954 138.514 14.2839C138.599 14.1632 138.556 13.9883 138.455 13.8808C138.355 13.7733 138.211 13.7184 138.073 13.671C137.569 13.4989 137.048 13.38 136.521 13.3113L135.844 12.1501C136.141 12.2239 136.418 12.3394 136.664 12.4926C136.916 12.6498 137.142 12.8494 137.446 12.9266C137.615 12.9694 137.8 12.9723 137.984 12.9546C138.175 12.9368 138.391 12.8843 138.513 12.7339C138.645 12.5715 138.605 12.3542 138.477 12.2296C138.349 12.105 138.154 12.0524 137.965 12.0083C137.261 11.8448 136.526 11.751 135.774 11.7293C135.718 11.7276 135.66 11.7282 135.602 11.735L134.515 9.87059C134.907 9.6356 135.2 9.25768 135.325 8.80771C135.572 8.7757 135.836 8.72425 136.129 8.62648C136.388 8.53957 136.766 8.4498 137.197 8.36118C137.213 8.38005 137.226 8.40063 137.242 8.41836C137.742 8.98038 138.286 9.48352 138.864 9.91747C139.019 10.0341 139.185 10.149 139.362 10.1673C139.54 10.1856 139.732 10.0764 139.772 9.87115C139.808 9.68133 139.71 9.4818 139.601 9.32457C139.496 9.17191 139.374 9.03126 139.233 8.93006C138.978 8.74653 138.68 8.70194 138.398 8.60989C138.158 8.53156 137.926 8.40977 137.706 8.26227C138.129 8.18394 138.576 8.10848 139.012 8.03987C139.382 8.37205 139.78 8.6745 140.206 8.93179C140.332 9.00783 140.466 9.08214 140.613 9.09015C140.759 9.09815 140.922 9.01811 140.96 8.87632C140.995 8.74539 140.919 8.61103 140.833 8.5064C140.749 8.40463 140.653 8.31144 140.538 8.24569C140.332 8.12677 140.086 8.1039 139.855 8.04844C139.756 8.02442 139.659 7.99184 139.564 7.95525C140.56 7.80602 141.361 7.70425 141.361 7.70425C141.444 7.68996 141.965 7.23313 141.951 7.15137C141.936 7.06961 141.882 6.76145 141.292 6.95756L141.29 6.95927Z" fill="white"/>
<path d="M163.472 46.7355C163.472 47.5948 162.775 48.2918 161.916 48.2918C161.056 48.2918 160.359 47.5948 160.359 46.7355C160.359 45.8762 161.056 45.1792 161.916 45.1792C162.775 45.1792 163.472 45.8762 163.472 46.7355Z" fill="white"/>
<path d="M107.177 13.1141C101.844 13.687 101.38 14.1512 100.807 19.4839C100.234 14.1512 99.7702 13.687 94.4375 13.1141C99.7702 12.5412 100.234 12.0769 100.807 6.74426C101.38 12.0769 101.844 12.5412 107.177 13.1141Z" fill="white"/>
<path d="M115.189 8.82939C111.099 9.26849 110.743 9.62469 110.304 13.7149C109.864 9.62469 109.508 9.26906 105.418 8.82939C109.508 8.39029 109.864 8.0341 110.304 3.94385C110.743 8.0341 111.099 8.38972 115.189 8.82939Z" fill="white"/>
<path d="M128.961 68.9129L129.62 71.699L130.224 67.5567L128.961 68.9129Z" fill="#D83226"/>
</svg>
