<svg width="23" height="22" viewBox="0 0 23 22" fill="none" xmlns="http://www.w3.org/2000/svg">
<g clipPath="url(#clip0_95_4941)">
<path d="M22.488 11.206C22.488 10.3047 22.4132 9.64693 22.2512 8.96484H11.7188V13.033H17.9011C17.7765 14.044 17.1034 15.5665 15.6076 16.5896L15.5867 16.7258L18.9168 19.2468L19.1475 19.2693C21.2665 17.357 22.488 14.5434 22.488 11.206Z" fill="#3792DE"/>
<path d="M11.7206 21.9245C14.7495 21.9245 17.2922 20.95 19.1494 19.2692L15.6095 16.5895C14.6622 17.2351 13.3908 17.6857 11.7206 17.6857C8.75413 17.6857 6.23634 15.7735 5.33881 13.1304L5.20726 13.1413L1.7445 15.76L1.69922 15.8831C3.54393 19.464 7.33313 21.9245 11.7206 21.9245Z" fill="#34A853"/>
<path d="M5.33615 13.1301C5.09933 12.448 4.96227 11.7171 4.96227 10.962C4.96227 10.2068 5.09933 9.47597 5.32369 8.79388L5.31742 8.64862L1.81127 5.98779L1.69656 6.04111C0.93626 7.52712 0.5 9.19585 0.5 10.962C0.5 12.7281 0.93626 14.3967 1.69656 15.8828L5.33615 13.1301Z" fill="#FBBC05"/>
<path d="M11.7206 4.23869C13.8271 4.23869 15.248 5.12785 16.0582 5.87089L19.2242 2.85018C17.2798 1.08405 14.7495 0 11.7206 0C7.33313 0 3.54393 2.46039 1.69922 6.04135L5.32635 8.79412C6.23634 6.15102 8.75413 4.23869 11.7206 4.23869Z" fill="#EB4335"/>
</g>
<defs>
<clipPath id="clip0_95_4941">
<rect x="0.5" width="22" height="22" rx="5" fill="white"/>
</clipPath>
</defs>
</svg>
