<svg width="202" height="34" viewBox="0 0 202 34" fill="none" xmlns="http://www.w3.org/2000/svg">
<path d="M16.2366 2.27117C16.2366 3.5287 17.2503 4.54235 18.5078 4.54235H20.4741C22.5014 4.54235 23.5151 6.98881 22.0822 8.42163L14.3465 16.1573C13.4625 17.0414 13.4625 18.4819 14.3465 19.3736C15.2306 20.2653 16.6711 20.2653 17.5628 19.3736L25.2985 11.6379C26.7313 10.205 29.1778 11.2187 29.1778 13.246V15.2123C29.1778 16.4698 30.1914 17.4835 31.4489 17.4835C32.7065 17.4835 33.7201 16.4698 33.7201 15.2123V2.27117C33.7201 1.01364 32.6988 0 31.4489 0H18.5078C17.2503 0 16.2366 1.01364 16.2366 2.27117Z" fill="#FDB853"/>
<path d="M9.75232 27.178L11.6043 25.326C12.4884 24.4419 12.4884 23.0015 11.6043 22.1098C10.7202 21.2257 9.27979 21.2257 8.38809 22.1098L6.53609 23.9618C5.65201 24.8459 5.65201 26.2863 6.53609 27.178C7.42018 28.0621 8.86062 28.0621 9.75232 27.178Z" fill="#FDB853"/>
<path d="M0.736222 29.769L0.50449 30.0008C-0.168163 30.6734 -0.168164 31.764 0.504489 32.4367L1.28053 33.2127C1.95318 33.8853 3.04376 33.8853 3.71641 33.2127L3.94815 32.981C4.6208 32.3083 4.6208 31.2177 3.94815 30.5451L3.17211 29.769C2.49946 29.0964 1.40887 29.0964 0.736222 29.769Z" fill="#FDB853"/>
<path d="M56.2586 29.1347C55.9143 29.1347 55.6388 29.0428 55.4322 28.8592C55.2486 28.6526 55.1223 28.4001 55.0534 28.1016L50.9558 6.02957C50.9558 5.9607 50.9443 5.90331 50.9214 5.8574C50.9214 5.81149 50.9214 5.77705 50.9214 5.7541C50.9214 5.5475 50.9902 5.37533 51.128 5.23759C51.2887 5.09986 51.4608 5.03099 51.6445 5.03099H54.6747C55.2486 5.03099 55.5699 5.26055 55.6388 5.71967L58.4968 21.3182L61.5959 11.2291C61.6647 11.0454 61.7795 10.8618 61.9402 10.6781C62.1238 10.4715 62.3878 10.3682 62.7322 10.3682H64.5916C64.9589 10.3682 65.2229 10.4715 65.3836 10.6781C65.5443 10.8618 65.6476 11.0454 65.6935 11.2291L68.827 21.2837L71.685 5.71967C71.7538 5.26055 72.0752 5.03099 72.6491 5.03099H75.6793C75.8629 5.03099 76.0236 5.09986 76.1614 5.23759C76.2991 5.37533 76.368 5.5475 76.368 5.7541C76.368 5.77705 76.368 5.81149 76.368 5.8574C76.368 5.90331 76.3565 5.9607 76.3335 6.02957L72.2359 28.1016C72.19 28.4001 72.0637 28.6526 71.8571 28.8592C71.6505 29.0428 71.3751 29.1347 71.0307 29.1347H68.7237C68.3793 29.1347 68.1039 29.0428 67.8972 28.8592C67.7136 28.6755 67.5873 28.4804 67.5185 28.2738L63.6619 16.7729L59.8053 28.2738C59.7135 28.4804 59.5757 28.6755 59.3921 28.8592C59.2085 29.0428 58.933 29.1347 58.5657 29.1347H56.2586Z" fill="#E5E5E5"/>
<path d="M87.2111 29.479C85.3746 29.479 83.8251 29.1576 82.5626 28.5148C81.3229 27.8721 80.3703 26.9653 79.7046 25.7946C79.0618 24.6238 78.6945 23.2579 78.6027 21.697C78.5797 21.2837 78.5682 20.7787 78.5682 20.1819C78.5682 19.585 78.5797 19.08 78.6027 18.6668C78.6945 17.0828 79.0733 15.7169 79.739 14.5692C80.4277 13.3984 81.3918 12.4916 82.6314 11.8489C83.894 11.2061 85.4206 10.8847 87.2111 10.8847C89.0017 10.8847 90.5168 11.2061 91.7564 11.8489C93.019 12.4916 93.9831 13.3984 94.6488 14.5692C95.3375 15.7169 95.7278 17.0828 95.8196 18.6668C95.8425 19.08 95.854 19.585 95.854 20.1819C95.854 20.7787 95.8425 21.2837 95.8196 21.697C95.7278 23.2579 95.349 24.6238 94.6833 25.7946C94.0405 26.9653 93.0878 27.8721 91.8252 28.5148C90.5856 29.1576 89.0476 29.479 87.2111 29.479ZM87.2111 26.07C88.4278 26.07 89.369 25.6913 90.0347 24.9337C90.7004 24.1532 91.0677 23.0169 91.1366 21.5248C91.1595 21.1804 91.171 20.7328 91.171 20.1819C91.171 19.6309 91.1595 19.1833 91.1366 18.8389C91.0677 17.3698 90.7004 16.2449 90.0347 15.4644C89.369 14.6839 88.4278 14.2937 87.2111 14.2937C85.9945 14.2937 85.0533 14.6839 84.3876 15.4644C83.7218 16.2449 83.3545 17.3698 83.2857 18.8389C83.2627 19.1833 83.2512 19.6309 83.2512 20.1819C83.2512 20.7328 83.2627 21.1804 83.2857 21.5248C83.3545 23.0169 83.7218 24.1532 84.3876 24.9337C85.0533 25.6913 85.9945 26.07 87.2111 26.07Z" fill="#E5E5E5"/>
<path d="M100.496 29.1347C100.266 29.1347 100.071 29.0543 99.9102 28.8936C99.7495 28.7329 99.6692 28.5378 99.6692 28.3082V12.0899C99.6692 11.8374 99.7495 11.6308 99.9102 11.4701C100.071 11.3094 100.266 11.2291 100.496 11.2291H103.285C103.514 11.2291 103.709 11.3094 103.87 11.4701C104.054 11.6308 104.146 11.8374 104.146 12.0899V13.5017C104.674 12.7671 105.351 12.2047 106.177 11.8144C107.027 11.4242 108.002 11.2291 109.104 11.2291H110.516C110.768 11.2291 110.963 11.3094 111.101 11.4701C111.262 11.6308 111.342 11.8259 111.342 12.0555V14.5347C111.342 14.7643 111.262 14.9594 111.101 15.1201C110.963 15.2808 110.768 15.3611 110.516 15.3611H107.83C106.728 15.3611 105.867 15.671 105.247 16.2908C104.651 16.9107 104.352 17.76 104.352 18.8389V28.3082C104.352 28.5378 104.272 28.7329 104.111 28.8936C103.95 29.0543 103.744 29.1347 103.491 29.1347H100.496Z" fill="#E5E5E5"/>
<path d="M114.889 29.1347C114.659 29.1347 114.464 29.0543 114.303 28.8936C114.143 28.7329 114.062 28.5378 114.062 28.3082V5.51306C114.062 5.2835 114.143 5.08838 114.303 4.92769C114.464 4.767 114.659 4.68665 114.889 4.68665H117.678C117.93 4.68665 118.125 4.767 118.263 4.92769C118.424 5.08838 118.504 5.2835 118.504 5.51306V17.2894L124.289 11.8144C124.496 11.6308 124.679 11.4931 124.84 11.4012C125.001 11.2865 125.242 11.2291 125.563 11.2291H128.765C128.995 11.2291 129.179 11.2979 129.316 11.4357C129.454 11.5734 129.523 11.7571 129.523 11.9866C129.523 12.0784 129.5 12.1817 129.454 12.2965C129.408 12.4113 129.316 12.5146 129.179 12.6064L122.085 19.2522L130.04 27.7917C130.269 28.0213 130.384 28.2164 130.384 28.3771C130.384 28.6067 130.304 28.7903 130.143 28.9281C130.005 29.0658 129.833 29.1347 129.626 29.1347H126.355C126.011 29.1347 125.758 29.0887 125.598 28.9969C125.46 28.8821 125.288 28.7329 125.081 28.5493L118.504 21.6281V28.3082C118.504 28.5378 118.424 28.7329 118.263 28.8936C118.125 29.0543 117.93 29.1347 117.678 29.1347H114.889Z" fill="#E5E5E5"/>
<path d="M135.714 29.1347C135.485 29.1347 135.29 29.0543 135.129 28.8936C134.968 28.7329 134.888 28.5378 134.888 28.3082V14.8791H132.099C131.869 14.8791 131.674 14.7987 131.513 14.638C131.353 14.4773 131.272 14.2822 131.272 14.0526V12.0555C131.272 11.8259 131.353 11.6308 131.513 11.4701C131.674 11.3094 131.869 11.2291 132.099 11.2291H134.888V9.81729C134.888 8.43993 135.14 7.30362 135.646 6.40834C136.151 5.49011 136.897 4.80143 137.884 4.34231C138.871 3.8832 140.122 3.65364 141.637 3.65364H143.979C144.231 3.65364 144.426 3.73398 144.564 3.89467C144.725 4.05536 144.805 4.25049 144.805 4.48005V6.47721C144.805 6.70677 144.725 6.90189 144.564 7.06258C144.426 7.22327 144.231 7.30362 143.979 7.30362H141.775C140.856 7.30362 140.225 7.53318 139.881 7.9923C139.537 8.45141 139.364 9.11713 139.364 9.98946V11.2291H143.634C143.887 11.2291 144.082 11.3094 144.22 11.4701C144.38 11.6308 144.461 11.8259 144.461 12.0555V14.0526C144.461 14.2822 144.38 14.4773 144.22 14.638C144.082 14.7987 143.887 14.8791 143.634 14.8791H139.364V28.3082C139.364 28.5378 139.284 28.7329 139.123 28.8936C138.963 29.0543 138.768 29.1347 138.538 29.1347H135.714Z" fill="#E5E5E5"/>
<path d="M148.044 29.1347C147.814 29.1347 147.619 29.0543 147.458 28.8936C147.298 28.7329 147.217 28.5378 147.217 28.3082V12.0899C147.217 11.8374 147.298 11.6308 147.458 11.4701C147.619 11.3094 147.814 11.2291 148.044 11.2291H150.833C151.063 11.2291 151.258 11.3094 151.418 11.4701C151.602 11.6308 151.694 11.8374 151.694 12.0899V13.5017C152.222 12.7671 152.899 12.2047 153.725 11.8144C154.575 11.4242 155.55 11.2291 156.652 11.2291H158.064C158.317 11.2291 158.512 11.3094 158.649 11.4701C158.81 11.6308 158.891 11.8259 158.891 12.0555V14.5347C158.891 14.7643 158.81 14.9594 158.649 15.1201C158.512 15.2808 158.317 15.3611 158.064 15.3611H155.378C154.276 15.3611 153.416 15.671 152.796 16.2908C152.199 16.9107 151.9 17.76 151.9 18.8389V28.3082C151.9 28.5378 151.82 28.7329 151.659 28.8936C151.499 29.0543 151.292 29.1347 151.04 29.1347H148.044Z" fill="#E5E5E5"/>
<path d="M162.402 29.1347C162.173 29.1347 161.978 29.0543 161.817 28.8936C161.656 28.7329 161.576 28.5378 161.576 28.3082V12.0555C161.576 11.8259 161.656 11.6308 161.817 11.4701C161.978 11.3094 162.173 11.2291 162.402 11.2291H165.26C165.513 11.2291 165.708 11.3094 165.846 11.4701C166.007 11.6308 166.087 11.8259 166.087 12.0555V28.3082C166.087 28.5378 166.007 28.7329 165.846 28.8936C165.708 29.0543 165.513 29.1347 165.26 29.1347H162.402ZM162.265 8.26777C162.012 8.26777 161.806 8.1989 161.645 8.06116C161.507 7.90047 161.438 7.69387 161.438 7.44135V4.96212C161.438 4.73256 161.507 4.53744 161.645 4.37675C161.806 4.21606 162.012 4.13571 162.265 4.13571H165.398C165.651 4.13571 165.857 4.21606 166.018 4.37675C166.179 4.53744 166.259 4.73256 166.259 4.96212V7.44135C166.259 7.69387 166.179 7.90047 166.018 8.06116C165.857 8.1989 165.651 8.26777 165.398 8.26777H162.265Z" fill="#E5E5E5"/>
<path d="M175.855 29.479C174.661 29.479 173.582 29.2494 172.618 28.7903C171.654 28.3082 170.885 27.677 170.311 26.8965C169.76 26.093 169.485 25.1977 169.485 24.2106C169.485 22.6037 170.127 21.3297 171.413 20.3885C172.721 19.4243 174.443 18.7816 176.578 18.4602L181.295 17.7715V17.0484C181.295 16.0842 181.054 15.3382 180.572 14.8102C180.09 14.2822 179.264 14.0182 178.093 14.0182C177.267 14.0182 176.589 14.1904 176.061 14.5347C175.556 14.8561 175.178 15.2923 174.925 15.8432C174.741 16.1416 174.477 16.2908 174.133 16.2908H171.413C171.16 16.2908 170.965 16.222 170.827 16.0842C170.713 15.9465 170.655 15.7629 170.655 15.5333C170.678 15.166 170.827 14.7184 171.103 14.1904C171.378 13.6624 171.815 13.1574 172.411 12.6753C173.008 12.1703 173.777 11.7456 174.718 11.4012C175.66 11.0569 176.796 10.8847 178.127 10.8847C179.574 10.8847 180.79 11.0684 181.777 11.4357C182.787 11.78 183.591 12.2506 184.188 12.8475C184.785 13.4443 185.221 14.1445 185.496 14.9479C185.772 15.7514 185.909 16.6007 185.909 17.496V28.3082C185.909 28.5378 185.829 28.7329 185.668 28.8936C185.508 29.0543 185.313 29.1347 185.083 29.1347H182.294C182.041 29.1347 181.835 29.0543 181.674 28.8936C181.536 28.7329 181.468 28.5378 181.468 28.3082V26.9653C181.169 27.4015 180.767 27.8147 180.262 28.2049C179.757 28.5722 179.137 28.8821 178.403 29.1347C177.691 29.3642 176.842 29.479 175.855 29.479ZM177.026 26.2078C177.829 26.2078 178.552 26.0356 179.195 25.6913C179.861 25.3469 180.377 24.8189 180.744 24.1073C181.135 23.3727 181.33 22.4545 181.33 21.3526V20.6295L177.886 21.1804C176.532 21.387 175.522 21.7199 174.856 22.179C174.19 22.6381 173.858 23.2006 173.858 23.8663C173.858 24.3713 174.007 24.8075 174.305 25.1748C174.627 25.5191 175.028 25.7831 175.51 25.9667C175.993 26.1274 176.498 26.2078 177.026 26.2078Z" fill="#E5E5E5"/>
<path d="M191.153 29.1347C190.924 29.1347 190.729 29.0543 190.568 28.8936C190.407 28.7329 190.327 28.5378 190.327 28.3082V12.0899C190.327 11.8374 190.407 11.6308 190.568 11.4701C190.729 11.3094 190.924 11.2291 191.153 11.2291H193.942C194.172 11.2291 194.367 11.3094 194.528 11.4701C194.712 11.6308 194.803 11.8374 194.803 12.0899V13.5017C195.331 12.7671 196.009 12.2047 196.835 11.8144C197.684 11.4242 198.66 11.2291 199.762 11.2291H201.174C201.426 11.2291 201.621 11.3094 201.759 11.4701C201.92 11.6308 202 11.8259 202 12.0555V14.5347C202 14.7643 201.92 14.9594 201.759 15.1201C201.621 15.2808 201.426 15.3611 201.174 15.3611H198.488C197.386 15.3611 196.525 15.671 195.905 16.2908C195.308 16.9107 195.01 17.76 195.01 18.8389V28.3082C195.01 28.5378 194.93 28.7329 194.769 28.8936C194.608 29.0543 194.402 29.1347 194.149 29.1347H191.153Z" fill="#E5E5E5"/>
</svg>
